<mxfile host="app.diagrams.net" modified="2021-06-09T08:18:36.607Z" agent="5.0 (Windows NT 10.0; Win64; x64) AppleWebKit/537.36 (KHTML, like Gecko) Chrome/91.0.4472.77 Safari/537.36" etag="82WP26L0su7LOxyzXNlK" version="14.7.6" type="github">
  <diagram id="C5RBs43oDa-KdzZeNtuy" name="Page-1">
    <mxGraphModel dx="536" dy="560" grid="1" gridSize="10" guides="1" tooltips="1" connect="1" arrows="1" fold="1" page="1" pageScale="1" pageWidth="827" pageHeight="1169" math="0" shadow="0">
      <root>
        <mxCell id="WIyWlLk6GJQsqaUBKTNV-0" />
        <mxCell id="WIyWlLk6GJQsqaUBKTNV-1" parent="WIyWlLk6GJQsqaUBKTNV-0" />
        <mxCell id="sDTiMlyhBn_OUwIUYDlb-9" value="" style="endArrow=none;dashed=1;html=1;" parent="WIyWlLk6GJQsqaUBKTNV-1" edge="1">
          <mxGeometry width="50" height="50" relative="1" as="geometry">
            <mxPoint x="200" y="1160" as="sourcePoint" />
            <mxPoint x="200" as="targetPoint" />
          </mxGeometry>
        </mxCell>
        <mxCell id="sDTiMlyhBn_OUwIUYDlb-10" value="" style="endArrow=none;dashed=1;html=1;" parent="WIyWlLk6GJQsqaUBKTNV-1" edge="1">
          <mxGeometry width="50" height="50" relative="1" as="geometry">
            <mxPoint x="440" y="1160" as="sourcePoint" />
            <mxPoint x="440" as="targetPoint" />
          </mxGeometry>
        </mxCell>
        <mxCell id="sDTiMlyhBn_OUwIUYDlb-11" value="" style="endArrow=none;dashed=1;html=1;" parent="WIyWlLk6GJQsqaUBKTNV-1" edge="1">
          <mxGeometry width="50" height="50" relative="1" as="geometry">
            <mxPoint x="600" y="1165" as="sourcePoint" />
            <mxPoint x="600" y="5" as="targetPoint" />
          </mxGeometry>
        </mxCell>
        <mxCell id="sDTiMlyhBn_OUwIUYDlb-13" value="&lt;font style=&quot;font-size: 24px&quot;&gt;Manager&lt;/font&gt;" style="text;html=1;align=center;verticalAlign=middle;resizable=0;points=[];autosize=1;strokeColor=none;" parent="WIyWlLk6GJQsqaUBKTNV-1" vertex="1">
          <mxGeometry x="42" y="20" width="110" height="20" as="geometry" />
        </mxCell>
        <mxCell id="sDTiMlyhBn_OUwIUYDlb-14" value="&lt;font style=&quot;font-size: 24px&quot;&gt;Hệ thống&lt;/font&gt;" style="text;html=1;align=center;verticalAlign=middle;resizable=0;points=[];autosize=1;strokeColor=none;" parent="WIyWlLk6GJQsqaUBKTNV-1" vertex="1">
          <mxGeometry x="262.5" y="20" width="110" height="20" as="geometry" />
        </mxCell>
        <mxCell id="DqRXOCXJwwsXO60JbTem-0" value="" style="ellipse;html=1;shape=startState;fillColor=#000000;strokeColor=#ff0000;" parent="WIyWlLk6GJQsqaUBKTNV-1" vertex="1">
          <mxGeometry x="80" y="90" width="30" height="30" as="geometry" />
        </mxCell>
        <mxCell id="DqRXOCXJwwsXO60JbTem-1" value="" style="edgeStyle=orthogonalEdgeStyle;html=1;verticalAlign=bottom;endArrow=classic;rounded=0;endFill=1;entryX=0.5;entryY=0;entryDx=0;entryDy=0;" parent="WIyWlLk6GJQsqaUBKTNV-1" source="DqRXOCXJwwsXO60JbTem-0" target="DqRXOCXJwwsXO60JbTem-2" edge="1">
          <mxGeometry relative="1" as="geometry">
            <mxPoint x="95" y="170" as="targetPoint" />
          </mxGeometry>
        </mxCell>
        <mxCell id="DqRXOCXJwwsXO60JbTem-2" value="&lt;font size=&quot;3&quot;&gt;Chọn &quot;Add user&quot;&lt;/font&gt;" style="rounded=1;whiteSpace=wrap;html=1;arcSize=40;fontColor=#000000;fillColor=#ffffc0;strokeColor=#ff0000;" parent="WIyWlLk6GJQsqaUBKTNV-1" vertex="1">
          <mxGeometry x="25" y="160" width="140" height="40" as="geometry" />
        </mxCell>
        <mxCell id="DqRXOCXJwwsXO60JbTem-3" value="" style="edgeStyle=orthogonalEdgeStyle;html=1;verticalAlign=bottom;endArrow=classic;endSize=8;endFill=1;entryX=0;entryY=0.5;entryDx=0;entryDy=0;" parent="WIyWlLk6GJQsqaUBKTNV-1" source="DqRXOCXJwwsXO60JbTem-2" target="DqRXOCXJwwsXO60JbTem-4" edge="1">
          <mxGeometry relative="1" as="geometry">
            <mxPoint x="240" y="180" as="targetPoint" />
          </mxGeometry>
        </mxCell>
        <mxCell id="DqRXOCXJwwsXO60JbTem-7" style="edgeStyle=orthogonalEdgeStyle;rounded=0;orthogonalLoop=1;jettySize=auto;html=1;exitX=0.5;exitY=1;exitDx=0;exitDy=0;entryX=1;entryY=0.5;entryDx=0;entryDy=0;endArrow=classic;endFill=1;strokeColor=#000000;" parent="WIyWlLk6GJQsqaUBKTNV-1" source="DqRXOCXJwwsXO60JbTem-4" target="DqRXOCXJwwsXO60JbTem-6" edge="1">
          <mxGeometry relative="1" as="geometry" />
        </mxCell>
        <mxCell id="DqRXOCXJwwsXO60JbTem-4" value="&lt;font size=&quot;3&quot;&gt;Hiển thị Form tạo user&lt;/font&gt;" style="rounded=1;whiteSpace=wrap;html=1;arcSize=40;fontColor=#000000;fillColor=#ffffc0;strokeColor=#ff0000;" parent="WIyWlLk6GJQsqaUBKTNV-1" vertex="1">
          <mxGeometry x="260" y="160" width="115" height="40" as="geometry" />
        </mxCell>
        <mxCell id="DqRXOCXJwwsXO60JbTem-12" style="edgeStyle=orthogonalEdgeStyle;rounded=0;orthogonalLoop=1;jettySize=auto;html=1;exitX=0.5;exitY=1;exitDx=0;exitDy=0;entryX=0;entryY=0.5;entryDx=0;entryDy=0;endArrow=classic;endFill=1;strokeColor=#000000;" parent="WIyWlLk6GJQsqaUBKTNV-1" source="DqRXOCXJwwsXO60JbTem-6" target="DqRXOCXJwwsXO60JbTem-9" edge="1">
          <mxGeometry relative="1" as="geometry" />
        </mxCell>
        <mxCell id="DqRXOCXJwwsXO60JbTem-6" value="&lt;font size=&quot;3&quot;&gt;Điền thông tin user mới&lt;/font&gt;" style="rounded=1;whiteSpace=wrap;html=1;arcSize=40;fontColor=#000000;fillColor=#ffffc0;strokeColor=#ff0000;" parent="WIyWlLk6GJQsqaUBKTNV-1" vertex="1">
          <mxGeometry x="30" y="240" width="130" height="40" as="geometry" />
        </mxCell>
        <mxCell id="DqRXOCXJwwsXO60JbTem-13" style="edgeStyle=orthogonalEdgeStyle;rounded=0;orthogonalLoop=1;jettySize=auto;html=1;exitX=0.5;exitY=0;exitDx=0;exitDy=0;endArrow=classic;endFill=1;strokeColor=#000000;" parent="WIyWlLk6GJQsqaUBKTNV-1" source="DqRXOCXJwwsXO60JbTem-9" edge="1">
          <mxGeometry relative="1" as="geometry">
            <mxPoint x="120" y="282" as="targetPoint" />
            <Array as="points">
              <mxPoint x="318" y="300" />
              <mxPoint x="120" y="300" />
            </Array>
          </mxGeometry>
        </mxCell>
        <mxCell id="DqRXOCXJwwsXO60JbTem-14" value="&lt;font style=&quot;font-size: 14px&quot;&gt;Không hợp lệ&lt;/font&gt;" style="edgeLabel;html=1;align=center;verticalAlign=middle;resizable=0;points=[];" parent="DqRXOCXJwwsXO60JbTem-13" vertex="1" connectable="0">
          <mxGeometry x="-0.8324" y="-4" relative="1" as="geometry">
            <mxPoint x="-49" y="-11" as="offset" />
          </mxGeometry>
        </mxCell>
        <mxCell id="DqRXOCXJwwsXO60JbTem-18" style="edgeStyle=orthogonalEdgeStyle;rounded=0;orthogonalLoop=1;jettySize=auto;html=1;exitX=0.5;exitY=1;exitDx=0;exitDy=0;entryX=0.82;entryY=0.253;entryDx=0;entryDy=0;entryPerimeter=0;endArrow=classic;endFill=1;strokeColor=#000000;" parent="WIyWlLk6GJQsqaUBKTNV-1" source="DqRXOCXJwwsXO60JbTem-9" edge="1">
          <mxGeometry relative="1" as="geometry">
            <mxPoint x="317.4" y="482.53" as="targetPoint" />
          </mxGeometry>
        </mxCell>
        <mxCell id="DqRXOCXJwwsXO60JbTem-19" value="&lt;font style=&quot;font-size: 14px&quot;&gt;Hợp lệ&lt;/font&gt;" style="edgeLabel;html=1;align=center;verticalAlign=middle;resizable=0;points=[];" parent="DqRXOCXJwwsXO60JbTem-18" vertex="1" connectable="0">
          <mxGeometry x="-0.0904" y="2" relative="1" as="geometry">
            <mxPoint x="22" y="-47" as="offset" />
          </mxGeometry>
        </mxCell>
        <mxCell id="DqRXOCXJwwsXO60JbTem-9" value="" style="rhombus;whiteSpace=wrap;html=1;fillColor=#ffffc0;strokeColor=#ff0000;" parent="WIyWlLk6GJQsqaUBKTNV-1" vertex="1">
          <mxGeometry x="297.5" y="320" width="40" height="40" as="geometry" />
        </mxCell>
        <mxCell id="DqRXOCXJwwsXO60JbTem-15" value="" style="line;strokeWidth=5;html=1;" parent="WIyWlLk6GJQsqaUBKTNV-1" vertex="1">
          <mxGeometry x="37.5" y="480" width="352.5" height="10" as="geometry" />
        </mxCell>
        <mxCell id="DqRXOCXJwwsXO60JbTem-21" style="edgeStyle=orthogonalEdgeStyle;rounded=0;orthogonalLoop=1;jettySize=auto;html=1;exitX=0.5;exitY=1;exitDx=0;exitDy=0;endArrow=classic;endFill=1;strokeColor=#000000;" parent="WIyWlLk6GJQsqaUBKTNV-1" source="DqRXOCXJwwsXO60JbTem-20" edge="1">
          <mxGeometry relative="1" as="geometry">
            <mxPoint x="95" y="484" as="targetPoint" />
          </mxGeometry>
        </mxCell>
        <mxCell id="DqRXOCXJwwsXO60JbTem-20" value="&lt;font size=&quot;3&quot;&gt;Chọn &quot;Lưu&quot;&lt;/font&gt;" style="rounded=1;whiteSpace=wrap;html=1;arcSize=40;fontColor=#000000;fillColor=#ffffc0;strokeColor=#ff0000;" parent="WIyWlLk6GJQsqaUBKTNV-1" vertex="1">
          <mxGeometry x="25" y="360" width="140" height="40" as="geometry" />
        </mxCell>
        <mxCell id="DqRXOCXJwwsXO60JbTem-27" value="" style="edgeStyle=none;rounded=0;orthogonalLoop=1;jettySize=auto;html=1;endArrow=classic;endFill=1;strokeColor=#000000;" parent="WIyWlLk6GJQsqaUBKTNV-1" source="DqRXOCXJwwsXO60JbTem-24" target="DqRXOCXJwwsXO60JbTem-26" edge="1">
          <mxGeometry relative="1" as="geometry" />
        </mxCell>
        <mxCell id="DqRXOCXJwwsXO60JbTem-24" value="&lt;font size=&quot;3&quot;&gt;Tạo user mới trên database&lt;/font&gt;" style="rounded=1;whiteSpace=wrap;html=1;arcSize=40;fontColor=#000000;fillColor=#ffffc0;strokeColor=#ff0000;" parent="WIyWlLk6GJQsqaUBKTNV-1" vertex="1">
          <mxGeometry x="240" y="520" width="160" height="40" as="geometry" />
        </mxCell>
        <mxCell id="DqRXOCXJwwsXO60JbTem-25" style="rounded=0;orthogonalLoop=1;jettySize=auto;html=1;endArrow=classic;endFill=1;strokeColor=#000000;entryX=0;entryY=0.25;entryDx=0;entryDy=0;" parent="WIyWlLk6GJQsqaUBKTNV-1" target="DqRXOCXJwwsXO60JbTem-24" edge="1">
          <mxGeometry relative="1" as="geometry">
            <mxPoint x="202" y="485" as="sourcePoint" />
            <mxPoint x="105" y="493.9999999999998" as="targetPoint" />
          </mxGeometry>
        </mxCell>
        <mxCell id="DqRXOCXJwwsXO60JbTem-29" value="" style="edgeStyle=none;rounded=0;orthogonalLoop=1;jettySize=auto;html=1;endArrow=classic;endFill=1;strokeColor=#000000;" parent="WIyWlLk6GJQsqaUBKTNV-1" source="DqRXOCXJwwsXO60JbTem-26" target="DqRXOCXJwwsXO60JbTem-28" edge="1">
          <mxGeometry relative="1" as="geometry" />
        </mxCell>
        <mxCell id="DqRXOCXJwwsXO60JbTem-26" value="&lt;font size=&quot;3&quot;&gt;Hiển thị danh sách user&lt;/font&gt;" style="rounded=1;whiteSpace=wrap;html=1;arcSize=40;fontColor=#000000;fillColor=#ffffc0;strokeColor=#ff0000;" parent="WIyWlLk6GJQsqaUBKTNV-1" vertex="1">
          <mxGeometry x="260" y="600" width="120" height="40" as="geometry" />
        </mxCell>
        <mxCell id="DqRXOCXJwwsXO60JbTem-31" value="" style="edgeStyle=none;rounded=0;orthogonalLoop=1;jettySize=auto;html=1;endArrow=classic;endFill=1;strokeColor=#000000;entryX=0.5;entryY=0;entryDx=0;entryDy=0;" parent="WIyWlLk6GJQsqaUBKTNV-1" source="DqRXOCXJwwsXO60JbTem-28" target="DqRXOCXJwwsXO60JbTem-32" edge="1">
          <mxGeometry relative="1" as="geometry">
            <mxPoint x="95" y="740" as="targetPoint" />
          </mxGeometry>
        </mxCell>
        <mxCell id="DqRXOCXJwwsXO60JbTem-28" value="&lt;font size=&quot;3&quot;&gt;Xem danh sách user và kiểm tra user mới&lt;/font&gt;" style="rounded=1;whiteSpace=wrap;html=1;arcSize=40;fontColor=#000000;fillColor=#ffffc0;strokeColor=#ff0000;" parent="WIyWlLk6GJQsqaUBKTNV-1" vertex="1">
          <mxGeometry x="5" y="600" width="180" height="40" as="geometry" />
        </mxCell>
        <mxCell id="DqRXOCXJwwsXO60JbTem-32" value="" style="ellipse;html=1;shape=endState;fillColor=#000000;strokeColor=#ff0000;" parent="WIyWlLk6GJQsqaUBKTNV-1" vertex="1">
          <mxGeometry x="80" y="680" width="30" height="30" as="geometry" />
        </mxCell>
      </root>
    </mxGraphModel>
  </diagram>
</mxfile>
